<svg width="15" height="16" viewBox="0 0 15 16" fill="none" xmlns="http://www.w3.org/2000/svg">
<path d="M14.2741 12.1497C13.8772 12.1497 13.5482 11.7987 13.5482 11.3755V2.64258L1.23649 15.7729C1.09131 15.9277 0.907405 16 0.723504 16C0.539604 16 0.355702 15.9277 0.210518 15.7729C-0.0701723 15.4735 -0.0701723 14.9781 0.210518 14.6787L12.5222 1.54839H4.33376C3.93692 1.54839 3.60784 1.19742 3.60784 0.774194C3.60784 0.350968 3.93692 0 4.33376 0H14.2741C14.3709 0 14.458 0.0206451 14.5548 0.0619354C14.729 0.134193 14.8742 0.289032 14.9419 0.474839C14.9806 0.578065 15 0.670968 15 0.774194V11.3755C15 11.7987 14.6709 12.1497 14.2741 12.1497Z" fill="#1D1E22"/>
</svg>
