<svg width="24" height="24" viewBox="0 0 24 24" fill="none" xmlns="http://www.w3.org/2000/svg">
<path d="M21.25 12C21.25 12.19 21.18 12.38 21.03 12.53L14.96 18.6C14.67 18.89 14.19 18.89 13.9 18.6C13.61 18.31 13.61 17.83 13.9 17.54L19.44 12L13.9 6.46C13.61 6.17 13.61 5.69 13.9 5.4C14.19 5.11 14.67 5.11 14.96 5.4L21.03 11.47C21.18 11.62 21.25 11.81 21.25 12Z" fill="white"/>
<path d="M21.08 12C21.08 12.41 20.74 12.75 20.33 12.75L3.5 12.75C3.09 12.75 2.75 12.41 2.75 12C2.75 11.59 3.09 11.25 3.5 11.25L20.33 11.25C20.74 11.25 21.08 11.59 21.08 12Z" fill="white"/>
</svg>
