<svg width="22" height="264" viewBox="0 0 22 264" fill="none" xmlns="http://www.w3.org/2000/svg">
<path d="M21.3536 4.35355C21.5488 4.15829 21.5488 3.84171 21.3536 3.64645L18.1716 0.464466C17.9763 0.269204 17.6597 0.269204 17.4645 0.464466C17.2692 0.659728 17.2692 0.976311 17.4645 1.17157L20.2929 4L17.4645 6.82843C17.2692 7.02369 17.2692 7.34027 17.4645 7.53553C17.6597 7.7308 17.9763 7.7308 18.1716 7.53553L21.3536 4.35355ZM1 4V3.5H0.5V4H1ZM1 263H0.5V263.5H1V263ZM21 3.5H19.3333V4.5H21V3.5ZM16 3.5H12.6667V4.5H16V3.5ZM9.33333 3.5H6V4.5H9.33333V3.5ZM2.66667 3.5H1V4.5H2.66667V3.5ZM0.5 4V6.02344H1.5V4H0.5ZM0.5 10.0703V14.1172H1.5V10.0703H0.5ZM0.5 18.1641V22.2109H1.5V18.1641H0.5ZM0.5 26.2578V30.3047H1.5V26.2578H0.5ZM0.5 34.3516V38.3984H1.5V34.3516H0.5ZM0.5 42.4453V46.4922H1.5V42.4453H0.5ZM0.5 50.5391V54.5859H1.5V50.5391H0.5ZM0.5 58.6328V62.6797H1.5V58.6328H0.5ZM0.5 66.7266V70.7734H1.5V66.7266H0.5ZM0.5 74.8203V78.8672H1.5V74.8203H0.5ZM0.5 82.9141V86.9609H1.5V82.9141H0.5ZM0.5 91.0078V95.0547H1.5V91.0078H0.5ZM0.5 99.1016V103.148H1.5V99.1016H0.5ZM0.5 107.195V111.242H1.5V107.195H0.5ZM0.5 115.289V119.336H1.5V115.289H0.5ZM0.5 123.383V127.43H1.5V123.383H0.5ZM0.5 131.477V135.523H1.5V131.477H0.5ZM0.5 139.57V143.617H1.5V139.57H0.5ZM0.5 147.664V151.711H1.5V147.664H0.5ZM0.5 155.758V159.805H1.5V155.758H0.5ZM0.5 163.852V167.898H1.5V163.852H0.5ZM0.5 171.945V175.992H1.5V171.945H0.5ZM0.5 180.039V184.086H1.5V180.039H0.5ZM0.5 188.133V192.18H1.5V188.133H0.5ZM0.5 196.227V200.273H1.5V196.227H0.5ZM0.5 204.32V208.367H1.5V204.32H0.5ZM0.5 212.414V216.461H1.5V212.414H0.5ZM0.5 220.508V224.555H1.5V220.508H0.5ZM0.5 228.602V232.648H1.5V228.602H0.5ZM0.5 236.695V240.742H1.5V236.695H0.5ZM0.5 244.789V248.836H1.5V244.789H0.5ZM0.5 252.883V256.93H1.5V252.883H0.5ZM0.5 260.977V263H1.5V260.977H0.5ZM1 263.5H2.66667V262.5H1V263.5ZM6 263.5H9.33333V262.5H6V263.5ZM12.6667 263.5H16V262.5H12.6667V263.5ZM19.3333 263.5H21V262.5H19.3333V263.5Z" fill="#4680FE"/>
</svg>
