<svg width="42" height="1147" viewBox="0 0 42 1147" fill="none" xmlns="http://www.w3.org/2000/svg">
<path d="M41.3536 4.35355C41.5488 4.15829 41.5488 3.84171 41.3536 3.64645L38.1716 0.464466C37.9763 0.269204 37.6597 0.269204 37.4645 0.464466C37.2692 0.659728 37.2692 0.976311 37.4645 1.17157L40.2929 4L37.4645 6.82843C37.2692 7.02369 37.2692 7.34027 37.4645 7.53553C37.6597 7.7308 37.9763 7.7308 38.1716 7.53553L41.3536 4.35355ZM1 4V3.5H0.5V4H1ZM1 1146H0.5V1146.5H1V1146ZM33 1145.5H31V1146.5H33V1145.5ZM27 1145.5H23V1146.5H27V1145.5ZM19 1145.5H15V1146.5H19V1145.5ZM11 1145.5H7V1146.5H11V1145.5ZM3 1145.5H1V1146.5H3V1145.5ZM1.5 1146V1144H0.5V1146H1.5ZM1.5 1140.01V1136.02H0.5V1140.01H1.5ZM1.5 1132.02V1128.03H0.5V1132.02H1.5ZM1.5 1124.04V1120.05H0.5V1124.04H1.5ZM1.5 1116.05V1112.06H0.5V1116.05H1.5ZM1.5 1108.07V1104.07H0.5V1108.07H1.5ZM1.5 1100.08V1096.09H0.5V1100.08H1.5ZM1.5 1092.09V1088.1H0.5V1092.09H1.5ZM1.5 1084.11V1080.12H0.5V1084.11H1.5ZM1.5 1076.12V1072.13H0.5V1076.12H1.5ZM1.5 1068.14V1064.14H0.5V1068.14H1.5ZM1.5 1060.15V1056.16H0.5V1060.15H1.5ZM1.5 1052.16V1048.17H0.5V1052.16H1.5ZM1.5 1044.18V1040.19H0.5V1044.18H1.5ZM1.5 1036.19V1032.2H0.5V1036.19H1.5ZM1.5 1028.21V1024.21H0.5V1028.21H1.5ZM1.5 1020.22V1016.23H0.5V1020.22H1.5ZM1.5 1012.23V1008.24H0.5V1012.23H1.5ZM1.5 1004.25V1000.26H0.5V1004.25H1.5ZM1.5 996.262V992.269H0.5V996.262H1.5ZM1.5 988.276V984.283H0.5V988.276H1.5ZM1.5 980.29V976.297H0.5V980.29H1.5ZM1.5 972.304V968.311H0.5V972.304H1.5ZM1.5 964.318V960.325H0.5V964.318H1.5ZM1.5 956.332V952.339H0.5V956.332H1.5ZM1.5 948.346V944.353H0.5V948.346H1.5ZM1.5 940.36V936.367H0.5V940.36H1.5ZM1.5 932.374V928.381H0.5V932.374H1.5ZM1.5 924.388V920.395H0.5V924.388H1.5ZM1.5 916.402V912.409H0.5V916.402H1.5ZM1.5 908.416V904.423H0.5V908.416H1.5ZM1.5 900.43V896.437H0.5V900.43H1.5ZM1.5 892.444V888.451H0.5V892.444H1.5ZM1.5 884.458V880.465H0.5V884.458H1.5ZM1.5 876.472V872.479H0.5V876.472H1.5ZM1.5 868.486V864.493H0.5V868.486H1.5ZM1.5 860.5V856.507H0.5V860.5H1.5ZM1.5 852.514V848.521H0.5V852.514H1.5ZM1.5 844.528V840.535H0.5V844.528H1.5ZM1.5 836.542V832.549H0.5V836.542H1.5ZM1.5 828.556V824.563H0.5V828.556H1.5ZM1.5 820.57V816.577H0.5V820.57H1.5ZM1.5 812.584V808.591H0.5V812.584H1.5ZM1.5 804.598V800.605H0.5V804.598H1.5ZM1.5 796.612V792.619H0.5V796.612H1.5ZM1.5 788.626V784.633H0.5V788.626H1.5ZM1.5 780.64V776.647H0.5V780.64H1.5ZM1.5 772.654V768.661H0.5V772.654H1.5ZM1.5 764.668V760.675H0.5V764.668H1.5ZM1.5 756.682V752.689H0.5V756.682H1.5ZM1.5 748.696V744.703H0.5V748.696H1.5ZM1.5 740.71V736.716H0.5V740.71H1.5ZM1.5 732.724V728.731H0.5V732.724H1.5ZM1.5 724.737V720.744H0.5V724.737H1.5ZM1.5 716.751V712.758H0.5V716.751H1.5ZM1.5 708.765V704.772H0.5V708.765H1.5ZM1.5 700.779V696.786H0.5V700.779H1.5ZM1.5 692.793V688.8H0.5V692.793H1.5ZM1.5 684.807V680.814H0.5V684.807H1.5ZM1.5 676.821V672.828H0.5V676.821H1.5ZM1.5 668.835V664.842H0.5V668.835H1.5ZM1.5 660.849V656.856H0.5V660.849H1.5ZM1.5 652.863V648.87H0.5V652.863H1.5ZM1.5 644.877V640.884H0.5V644.877H1.5ZM1.5 636.891V632.898H0.5V636.891H1.5ZM1.5 628.905V624.912H0.5V628.905H1.5ZM1.5 620.919V616.926H0.5V620.919H1.5ZM1.5 612.933V608.94H0.5V612.933H1.5ZM1.5 604.947V600.954H0.5V604.947H1.5ZM1.5 596.961V592.968H0.5V596.961H1.5ZM1.5 588.975V584.982H0.5V588.975H1.5ZM1.5 580.99V576.997H0.5V580.99H1.5ZM1.5 573.004V569.011H0.5V573.004H1.5ZM1.5 565.018V561.025H0.5V565.018H1.5ZM1.5 557.032V553.039H0.5V557.032H1.5ZM1.5 549.046V545.053H0.5V549.046H1.5ZM1.5 541.06V537.067H0.5V541.06H1.5ZM1.5 533.074V529.081H0.5V533.074H1.5ZM1.5 525.088V521.095H0.5V525.088H1.5ZM1.5 517.102V513.109H0.5V517.102H1.5ZM1.5 509.116V505.123H0.5V509.116H1.5ZM1.5 501.13V497.137H0.5V501.13H1.5ZM1.5 493.144V489.151H0.5V493.144H1.5ZM1.5 485.158V481.165H0.5V485.158H1.5ZM1.5 477.172V473.179H0.5V477.172H1.5ZM1.5 469.186V465.193H0.5V469.186H1.5ZM1.5 461.2V457.207H0.5V461.2H1.5ZM1.5 453.214V449.221H0.5V453.214H1.5ZM1.5 445.228V441.235H0.5V445.228H1.5ZM1.5 437.242V433.249H0.5V437.242H1.5ZM1.5 429.256V425.263H0.5V429.256H1.5ZM1.5 421.27V417.277H0.5V421.27H1.5ZM1.5 413.284V409.291H0.5V413.284H1.5ZM1.5 405.298V401.305H0.5V405.298H1.5ZM1.5 397.312V393.319H0.5V397.312H1.5ZM1.5 389.326V385.333H0.5V389.326H1.5ZM1.5 381.34V377.347H0.5V381.34H1.5ZM1.5 373.354V369.362H0.5V373.354H1.5ZM1.5 365.369V361.376H0.5V365.369H1.5ZM1.5 357.383V353.39H0.5V357.383H1.5ZM1.5 349.397V345.404H0.5V349.397H1.5ZM1.5 341.411V337.418H0.5V341.411H1.5ZM1.5 333.425V329.432H0.5V333.425H1.5ZM1.5 325.439V321.446H0.5V325.439H1.5ZM1.5 317.453V313.46H0.5V317.453H1.5ZM1.5 309.467V305.474H0.5V309.467H1.5ZM1.5 301.481V297.488H0.5V301.481H1.5ZM1.5 293.495V289.502H0.5V293.495H1.5ZM1.5 285.509V281.516H0.5V285.509H1.5ZM1.5 277.523V273.53H0.5V277.523H1.5ZM1.5 269.537V265.544H0.5V269.537H1.5ZM1.5 261.551V257.558H0.5V261.551H1.5ZM1.5 253.565V249.572H0.5V253.565H1.5ZM1.5 245.579V241.586H0.5V245.579H1.5ZM1.5 237.593V233.6H0.5V237.593H1.5ZM1.5 229.607V225.614H0.5V229.607H1.5ZM1.5 221.621V217.628H0.5V221.621H1.5ZM1.5 213.635V209.642H0.5V213.635H1.5ZM1.5 205.649V201.656H0.5V205.649H1.5ZM1.5 197.663V193.67H0.5V197.663H1.5ZM1.5 189.677V185.684H0.5V189.677H1.5ZM1.5 181.691V177.698H0.5V181.691H1.5ZM1.5 173.705V169.712H0.5V173.705H1.5ZM1.5 165.719V161.727H0.5V165.719H1.5ZM1.5 157.734V153.741H0.5V157.734H1.5ZM1.5 149.748V145.755H0.5V149.748H1.5ZM1.5 141.762V137.769H0.5V141.762H1.5ZM1.5 133.776V129.783H0.5V133.776H1.5ZM1.5 125.79V121.797H0.5V125.79H1.5ZM1.5 117.804V113.811H0.5V117.804H1.5ZM1.5 109.818V105.824H0.5V109.818H1.5ZM1.5 101.831V97.8384H0.5V101.831H1.5ZM1.5 93.8453V89.8523H0.5V93.8453H1.5ZM1.5 85.8593V81.8662H0.5V85.8593H1.5ZM1.5 77.8732V73.8801H0.5V77.8732H1.5ZM1.5 69.8871V65.894H0.5V69.8871H1.5ZM1.5 61.901V57.9079H0.5V61.901H1.5ZM1.5 53.9149V49.9219H0.5V53.9149H1.5ZM1.5 45.9288V41.9358H0.5V45.9288H1.5ZM1.5 37.9428V33.9497H0.5V37.9428H1.5ZM1.5 29.9567V25.9636H0.5V29.9567H1.5ZM1.5 21.9706V17.9775H0.5V21.9706H1.5ZM1.5 13.9845V9.99146H0.5V13.9845H1.5ZM1.5 5.99842V4H0.5V5.99842H1.5ZM1 4.5H3V3.5H1V4.5ZM7 4.5H11V3.5H7V4.5ZM15 4.5H19V3.5H15V4.5ZM23 4.5H27V3.5H23V4.5ZM31 4.5H35V3.5H31V4.5ZM39 4.5H41V3.5H39V4.5Z" fill="#4680FE"/>
</svg>
