<svg width="22" height="272" viewBox="0 0 22 272" fill="none" xmlns="http://www.w3.org/2000/svg">
<path d="M21.3536 4.85355C21.5488 4.65829 21.5488 4.34171 21.3536 4.14645L18.1716 0.964466C17.9763 0.769204 17.6597 0.769204 17.4645 0.964466C17.2692 1.15973 17.2692 1.47631 17.4645 1.67157L20.2929 4.5L17.4645 7.32843C17.2692 7.52369 17.2692 7.84027 17.4645 8.03553C17.6597 8.2308 17.9763 8.2308 18.1716 8.03553L21.3536 4.85355ZM0.5 4.5V4H0V4.5H0.5ZM0.5 271H0V271.5H0.5V271ZM21 4H19.2917V5H21V4ZM15.875 4H12.4583V5H15.875V4ZM9.04167 4H5.625V5H9.04167V4ZM2.20833 4H0.5V5H2.20833V4ZM0 4.5V6.51894H1V4.5H0ZM0 10.5568V14.5947H1V10.5568H0ZM0 18.6326V22.6705H1V18.6326H0ZM0 26.7083V30.7462H1V26.7083H0ZM0 34.7841V38.822H1V34.7841H0ZM0 42.8599V46.8977H1V42.8599H0ZM0 50.9356V54.9735H1V50.9356H0ZM0 59.0114V63.0493H1V59.0114H0ZM0 67.0871V71.125H1V67.0871H0ZM0 75.1629V79.2008H1V75.1629H0ZM0 83.2387V87.2765H1V83.2387H0ZM0 91.3144V95.3523H1V91.3144H0ZM0 99.3902V103.428H1V99.3902H0ZM0 107.466V111.504H1V107.466H0ZM0 115.542V119.58H1V115.542H0ZM0 123.617V127.655H1V123.617H0ZM0 131.693V135.731H1V131.693H0ZM0 139.769V143.807H1V139.769H0ZM0 147.845V151.883H1V147.845H0ZM0 155.92V159.958H1V155.92H0ZM0 163.996V168.034H1V163.996H0ZM0 172.072V176.11H1V172.072H0ZM0 180.148V184.186H1V180.148H0ZM0 188.223V192.261H1V188.223H0ZM0 196.299V200.337H1V196.299H0ZM0 204.375V208.413H1V204.375H0ZM0 212.451V216.489H1V212.451H0ZM0 220.526V224.564H1V220.526H0ZM0 228.602V232.64H1V228.602H0ZM0 236.678V240.716H1V236.678H0ZM0 244.754V248.792H1V244.754H0ZM0 252.829V256.867H1V252.829H0ZM0 260.905V264.943H1V260.905H0ZM0 268.981V271H1V268.981H0ZM0.5 271.5H2.20833V270.5H0.5V271.5ZM5.625 271.5H9.04167V270.5H5.625V271.5ZM12.4583 271.5H15.875V270.5H12.4583V271.5ZM19.2917 271.5H21V270.5H19.2917V271.5Z" fill="#4680FE"/>
</svg>
