<svg width="22" height="271" viewBox="0 0 22 271" fill="none" xmlns="http://www.w3.org/2000/svg">
<path d="M21.3536 4.35355C21.5488 4.15829 21.5488 3.84171 21.3536 3.64645L18.1716 0.464466C17.9763 0.269204 17.6597 0.269204 17.4645 0.464466C17.2692 0.659728 17.2692 0.976311 17.4645 1.17157L20.2929 4L17.4645 6.82843C17.2692 7.02369 17.2692 7.34027 17.4645 7.53553C17.6597 7.7308 17.9763 7.7308 18.1716 7.53553L21.3536 4.35355ZM0.5 4V3.5H0V4H0.5ZM0.5 270.5H0V271H0.5V270.5ZM21 3.5H19.2917V4.5H21V3.5ZM15.875 3.5H12.4583V4.5H15.875V3.5ZM9.04167 3.5H5.625V4.5H9.04167V3.5ZM2.20833 3.5H0.5V4.5H2.20833V3.5ZM0 4V6.01894H1V4H0ZM0 10.0568V14.0947H1V10.0568H0ZM0 18.1326V22.1705H1V18.1326H0ZM0 26.2083V30.2462H1V26.2083H0ZM0 34.2841V38.322H1V34.2841H0ZM0 42.3599V46.3977H1V42.3599H0ZM0 50.4356V54.4735H1V50.4356H0ZM0 58.5114V62.5493H1V58.5114H0ZM0 66.5871V70.625H1V66.5871H0ZM0 74.6629V78.7008H1V74.6629H0ZM0 82.7387V86.7765H1V82.7387H0ZM0 90.8144V94.8523H1V90.8144H0ZM0 98.8902V102.928H1V98.8902H0ZM0 106.966V111.004H1V106.966H0ZM0 115.042V119.08H1V115.042H0ZM0 123.117V127.155H1V123.117H0ZM0 131.193V135.231H1V131.193H0ZM0 139.269V143.307H1V139.269H0ZM0 147.345V151.383H1V147.345H0ZM0 155.42V159.458H1V155.42H0ZM0 163.496V167.534H1V163.496H0ZM0 171.572V175.61H1V171.572H0ZM0 179.648V183.686H1V179.648H0ZM0 187.723V191.761H1V187.723H0ZM0 195.799V199.837H1V195.799H0ZM0 203.875V207.913H1V203.875H0ZM0 211.951V215.989H1V211.951H0ZM0 220.026V224.064H1V220.026H0ZM0 228.102V232.14H1V228.102H0ZM0 236.178V240.216H1V236.178H0ZM0 244.254V248.292H1V244.254H0ZM0 252.329V256.367H1V252.329H0ZM0 260.405V264.443H1V260.405H0ZM0 268.481V270.5H1V268.481H0ZM0.5 271H2.20833V270H0.5V271ZM5.625 271H9.04167V270H5.625V271ZM12.4583 271H15.875V270H12.4583V271ZM19.2917 271H21V270H19.2917V271Z" fill="#4680FE"/>
</svg>
