<svg width="42" height="852" viewBox="0 0 42 852" fill="none" xmlns="http://www.w3.org/2000/svg">
<path d="M0.646446 4.35355C0.451183 4.15829 0.451183 3.84171 0.646446 3.64645L3.82843 0.464466C4.02369 0.269204 4.34027 0.269204 4.53553 0.464466C4.7308 0.659728 4.7308 0.976311 4.53553 1.17157L1.70711 4L4.53553 6.82843C4.7308 7.02369 4.7308 7.34027 4.53553 7.53553C4.34027 7.7308 4.02369 7.7308 3.82843 7.53553L0.646446 4.35355ZM41 4V3.5H41.5V4H41ZM41 851H41.5V851.5H41V851ZM9 850.5H11V851.5H9V850.5ZM15 850.5H19V851.5H15V850.5ZM23 850.5H27V851.5H23V850.5ZM31 850.5H35V851.5H31V850.5ZM39 850.5H41V851.5H39V850.5ZM40.5 851V849.002H41.5V851H40.5ZM40.5 845.007V841.012H41.5V845.007H40.5ZM40.5 837.016V833.021H41.5V837.016H40.5ZM40.5 829.026V825.031H41.5V829.026H40.5ZM40.5 821.035V817.04H41.5V821.035H40.5ZM40.5 813.045V809.049H41.5V813.045H40.5ZM40.5 805.054V801.059H41.5V805.054H40.5ZM40.5 797.064V793.068H41.5V797.064H40.5ZM40.5 789.073V785.078H41.5V789.073H40.5ZM40.5 781.083V777.087H41.5V781.083H40.5ZM40.5 773.092V769.097H41.5V773.092H40.5ZM40.5 765.101V761.106H41.5V765.101H40.5ZM40.5 757.111V753.116H41.5V757.111H40.5ZM40.5 749.12V745.125H41.5V749.12H40.5ZM40.5 741.13V737.134H41.5V741.13H40.5ZM40.5 733.139V729.144H41.5V733.139H40.5ZM40.5 725.148V721.153H41.5V725.148H40.5ZM40.5 717.158V713.163H41.5V717.158H40.5ZM40.5 709.167V705.172H41.5V709.167H40.5ZM40.5 701.177V697.182H41.5V701.177H40.5ZM40.5 693.186V689.191H41.5V693.186H40.5ZM40.5 685.196V681.2H41.5V685.196H40.5ZM40.5 677.205V673.21H41.5V677.205H40.5ZM40.5 669.215V665.219H41.5V669.215H40.5ZM40.5 661.224V657.229H41.5V661.224H40.5ZM40.5 653.233V649.238H41.5V653.233H40.5ZM40.5 645.243V641.248H41.5V645.243H40.5ZM40.5 637.252V633.257H41.5V637.252H40.5ZM40.5 629.262V625.266H41.5V629.262H40.5ZM40.5 621.271V617.276H41.5V621.271H40.5ZM40.5 613.281V609.285H41.5V613.281H40.5ZM40.5 605.29V601.295H41.5V605.29H40.5ZM40.5 597.299V593.304H41.5V597.299H40.5ZM40.5 589.309V585.314H41.5V589.309H40.5ZM40.5 581.318V577.323H41.5V581.318H40.5ZM40.5 573.328V569.333H41.5V573.328H40.5ZM40.5 565.337V561.342H41.5V565.337H40.5ZM40.5 557.347V553.351H41.5V557.347H40.5ZM40.5 549.356V545.361H41.5V549.356H40.5ZM40.5 541.366V537.37H41.5V541.366H40.5ZM40.5 533.375V529.38H41.5V533.375H40.5ZM40.5 525.385V521.389H41.5V525.385H40.5ZM40.5 517.394V513.399H41.5V517.394H40.5ZM40.5 509.403V505.408H41.5V509.403H40.5ZM40.5 501.413V497.418H41.5V501.413H40.5ZM40.5 493.422V489.427H41.5V493.422H40.5ZM40.5 485.432V481.437H41.5V485.432H40.5ZM40.5 477.441V473.446H41.5V477.441H40.5ZM40.5 469.451V465.456H41.5V469.451H40.5ZM40.5 461.46V457.465H41.5V461.46H40.5ZM40.5 453.47V449.474H41.5V453.47H40.5ZM40.5 445.479V441.484H41.5V445.479H40.5ZM40.5 437.489V433.493H41.5V437.489H40.5ZM40.5 429.498V425.503H41.5V429.498H40.5ZM40.5 421.508V417.512H41.5V421.508H40.5ZM40.5 413.517V409.522H41.5V413.517H40.5ZM40.5 405.526V401.531H41.5V405.526H40.5ZM40.5 397.536V393.541H41.5V397.536H40.5ZM40.5 389.545V385.55H41.5V389.545H40.5ZM40.5 381.555V377.56H41.5V381.555H40.5ZM40.5 373.564V369.569H41.5V373.564H40.5ZM40.5 365.574V361.578H41.5V365.574H40.5ZM40.5 357.583V353.588H41.5V357.583H40.5ZM40.5 349.593V345.597H41.5V349.593H40.5ZM40.5 341.602V337.607H41.5V341.602H40.5ZM40.5 333.612V329.616H41.5V333.612H40.5ZM40.5 325.621V321.626H41.5V325.621H40.5ZM40.5 317.63V313.635H41.5V317.63H40.5ZM40.5 309.64V305.644H41.5V309.64H40.5ZM40.5 301.649V297.654H41.5V301.649H40.5ZM40.5 293.659V289.663H41.5V293.659H40.5ZM40.5 285.668V281.673H41.5V285.668H40.5ZM40.5 277.677V273.682H41.5V277.677H40.5ZM40.5 269.687V265.691H41.5V269.687H40.5ZM40.5 261.696V257.701H41.5V261.696H40.5ZM40.5 253.706V249.71H41.5V253.706H40.5ZM40.5 245.715V241.72H41.5V245.715H40.5ZM40.5 237.724V233.729H41.5V237.724H40.5ZM40.5 229.734V225.738H41.5V229.734H40.5ZM40.5 221.743V217.748H41.5V221.743H40.5ZM40.5 213.753V209.757H41.5V213.753H40.5ZM40.5 205.762V201.767H41.5V205.762H40.5ZM40.5 197.771V193.776H41.5V197.771H40.5ZM40.5 189.781V185.785H41.5V189.781H40.5ZM40.5 181.79V177.795H41.5V181.79H40.5ZM40.5 173.8V169.804H41.5V173.8H40.5ZM40.5 165.809V161.814H41.5V165.809H40.5ZM40.5 157.818V153.823H41.5V157.818H40.5ZM40.5 149.828V145.832H41.5V149.828H40.5ZM40.5 141.837V137.842H41.5V141.837H40.5ZM40.5 133.847V129.851H41.5V133.847H40.5ZM40.5 125.856V121.861H41.5V125.856H40.5ZM40.5 117.865V113.87H41.5V117.865H40.5ZM40.5 109.875V105.879H41.5V109.875H40.5ZM40.5 101.884V97.8889H41.5V101.884H40.5ZM40.5 93.8936V89.8982H41.5V93.8936H40.5ZM40.5 85.9029V81.9076H41.5V85.9029H40.5ZM40.5 77.9124V73.9171H41.5V77.9124H40.5ZM40.5 69.9218V65.9264H41.5V69.9218H40.5ZM40.5 61.9311V57.9358H41.5V61.9311H40.5ZM40.5 53.9405V49.9453H41.5V53.9405H40.5ZM40.5 45.95V41.9547H41.5V45.95H40.5ZM40.5 37.9593V33.964H41.5V37.9593H40.5ZM40.5 29.9687V25.9735H41.5V29.9687H40.5ZM40.5 21.9782V17.9829H41.5V21.9782H40.5ZM40.5 13.9875V9.99223H41.5V13.9875H40.5ZM40.5 5.99694V4H41.5V5.99694H40.5ZM41 4.5H39V3.5H41V4.5ZM35 4.5H31V3.5H35V4.5ZM27 4.5H23V3.5H27V4.5ZM19 4.5H15V3.5H19V4.5ZM11 4.5H7V3.5H11V4.5ZM3 4.5H1V3.5H3V4.5Z" fill="#4680FE"/>
</svg>
