<svg width="22" height="271" viewBox="0 0 22 271" fill="none" xmlns="http://www.w3.org/2000/svg">
<path d="M0.646446 4.35355C0.451183 4.15829 0.451183 3.84171 0.646446 3.64645L3.82843 0.464466C4.02369 0.269204 4.34027 0.269204 4.53553 0.464466C4.73079 0.659728 4.73079 0.976311 4.53553 1.17157L1.70711 4L4.53553 6.82843C4.73079 7.02369 4.73079 7.34027 4.53553 7.53553C4.34027 7.7308 4.02369 7.7308 3.82843 7.53553L0.646446 4.35355ZM21 4V3.5H21.5V4H21ZM21 270H21.5V270.5H21V270ZM1 3.5H2.66667V4.5H1V3.5ZM6 3.5H9.33333V4.5H6V3.5ZM12.6667 3.5H16V4.5H12.6667V3.5ZM19.3333 3.5H21V4.5H19.3333V3.5ZM21.5 4V6.01515H20.5V4H21.5ZM21.5 10.0455V14.0758H20.5V10.0455H21.5ZM21.5 18.1061V22.1364H20.5V18.1061H21.5ZM21.5 26.1667V30.197H20.5V26.1667H21.5ZM21.5 34.2273V38.2576H20.5V34.2273H21.5ZM21.5 42.2879V46.3182H20.5V42.2879H21.5ZM21.5 50.3485V54.3788H20.5V50.3485H21.5ZM21.5 58.4091V62.4394H20.5V58.4091H21.5ZM21.5 66.4697V70.5H20.5V66.4697H21.5ZM21.5 74.5303V78.5606H20.5V74.5303H21.5ZM21.5 82.5909V86.6212H20.5V82.5909H21.5ZM21.5 90.6515V94.6818H20.5V90.6515H21.5ZM21.5 98.7121V102.742H20.5V98.7121H21.5ZM21.5 106.773V110.803H20.5V106.773H21.5ZM21.5 114.833V118.864H20.5V114.833H21.5ZM21.5 122.894V126.924H20.5V122.894H21.5ZM21.5 130.955V134.985H20.5V130.955H21.5ZM21.5 139.015V143.045H20.5V139.015H21.5ZM21.5 147.076V151.106H20.5V147.076H21.5ZM21.5 155.136V159.167H20.5V155.136H21.5ZM21.5 163.197V167.227H20.5V163.197H21.5ZM21.5 171.258V175.288H20.5V171.258H21.5ZM21.5 179.318V183.349H20.5V179.318H21.5ZM21.5 187.379V191.409H20.5V187.379H21.5ZM21.5 195.439V199.47H20.5V195.439H21.5ZM21.5 203.5V207.53H20.5V203.5H21.5ZM21.5 211.561V215.591H20.5V211.561H21.5ZM21.5 219.621V223.652H20.5V219.621H21.5ZM21.5 227.682V231.712H20.5V227.682H21.5ZM21.5 235.742V239.773H20.5V235.742H21.5ZM21.5 243.803V247.833H20.5V243.803H21.5ZM21.5 251.864V255.894H20.5V251.864H21.5ZM21.5 259.924V263.955H20.5V259.924H21.5ZM21.5 267.985V270H20.5V267.985H21.5ZM21 270.5H19.3333V269.5H21V270.5ZM16 270.5H12.6667V269.5H16V270.5ZM9.33333 270.5H6V269.5H9.33333V270.5ZM2.66667 270.5H1V269.5H2.66667V270.5Z" fill="#4680FE"/>
</svg>
