<svg width="16" height="126" viewBox="0 0 16 126" fill="none" xmlns="http://www.w3.org/2000/svg">
<g clip-path="url(#clip0_106_6)">
<path d="M7.66963 125.359C7.8682 125.551 8.18474 125.546 8.37663 125.347L11.5038 122.111C11.6957 121.913 11.6902 121.596 11.4917 121.404C11.2931 121.212 10.9766 121.218 10.7847 121.416L8.005 124.293L5.12865 121.513C4.93008 121.321 4.61354 121.327 4.42164 121.525C4.22975 121.724 4.23516 122.04 4.43373 122.232L7.66963 125.359ZM5.5505 9.95854C5.55522 10.2346 5.78287 10.4546 6.05897 10.4499C6.33508 10.4452 6.55507 10.2176 6.55035 9.94145L5.5505 9.95854ZM6.65121 15.8414C6.64649 15.5653 6.41884 15.3453 6.14274 15.3501C5.86663 15.3548 5.64664 15.5824 5.65135 15.8585L6.65121 15.8414ZM5.75221 21.7585C5.75693 22.0346 5.98458 22.2546 6.26068 22.2499C6.53678 22.2452 6.75678 22.0175 6.75206 21.7414L5.75221 21.7585ZM6.85292 27.6414C6.8482 27.3653 6.62055 27.1453 6.34444 27.15C6.06834 27.1547 5.84834 27.3824 5.85306 27.6585L6.85292 27.6414ZM5.95392 33.5585C5.95864 33.8346 6.18629 34.0546 6.46239 34.0499C6.73849 34.0451 6.95849 33.8175 6.95377 33.5414L5.95392 33.5585ZM7.05463 39.4414C7.04991 39.1653 6.82226 38.9453 6.54615 38.95C6.27005 38.9547 6.05005 39.1824 6.05477 39.4585L7.05463 39.4414ZM6.15563 45.3585C6.16035 45.6346 6.388 45.8546 6.6641 45.8498C6.9402 45.8451 7.1602 45.6175 7.15548 45.3414L6.15563 45.3585ZM7.25634 51.2413C7.25162 50.9652 7.02396 50.7452 6.74786 50.75C6.47176 50.7547 6.25176 50.9823 6.25648 51.2584L7.25634 51.2413ZM6.35734 57.1584C6.36206 57.4345 6.58971 57.6545 6.86581 57.6498C7.14191 57.6451 7.36191 57.4174 7.35719 57.1413L6.35734 57.1584ZM7.45804 63.0413C7.45332 62.7652 7.22567 62.5452 6.94957 62.5499C6.67347 62.5547 6.45347 62.7823 6.45819 63.0584L7.45804 63.0413ZM6.55904 68.9584C6.56376 69.2345 6.79142 69.4545 7.06752 69.4498C7.34362 69.4451 7.56362 69.2174 7.5589 68.9413L6.55904 68.9584ZM7.65975 74.8413C7.65503 74.5652 7.42738 74.3452 7.15128 74.3499C6.87518 74.3546 6.65518 74.5823 6.6599 74.8584L7.65975 74.8413ZM6.76075 80.7584C6.76547 81.0345 6.99312 81.2545 7.26923 81.2497C7.54533 81.245 7.76533 81.0174 7.76061 80.7413L6.76075 80.7584ZM7.86146 86.6413C7.85674 86.3652 7.62909 86.1452 7.35299 86.1499C7.07689 86.1546 6.85689 86.3823 6.86161 86.6584L7.86146 86.6413ZM6.96246 92.5583C6.96718 92.8344 7.19483 93.0544 7.47094 93.0497C7.74704 93.045 7.96704 92.8174 7.96232 92.5412L6.96246 92.5583ZM8.06317 98.4412C8.05845 98.1651 7.8308 97.9451 7.5547 97.9499C7.2786 97.9546 7.0586 98.1822 7.06332 98.4583L8.06317 98.4412ZM7.16417 104.358C7.16889 104.634 7.39654 104.854 7.67264 104.85C7.94875 104.845 8.16875 104.617 8.16403 104.341L7.16417 104.358ZM8.26488 110.241C8.26016 109.965 8.03251 109.745 7.75641 109.75C7.48031 109.755 7.26031 109.982 7.26503 110.258L8.26488 110.241ZM7.36588 116.158C7.3706 116.434 7.59825 116.654 7.87435 116.65C8.15046 116.645 8.37045 116.417 8.36573 116.141L7.36588 116.158ZM8.46659 122.041C8.46187 121.765 8.23422 121.545 7.95812 121.55C7.68201 121.555 7.46202 121.782 7.46674 122.058L8.46659 122.041ZM5.50007 7.00855L5.5505 9.95854L6.55035 9.94145L6.49993 6.99146L5.50007 7.00855ZM5.65135 15.8585L5.75221 21.7585L6.75206 21.7414L6.65121 15.8414L5.65135 15.8585ZM5.85306 27.6585L5.95392 33.5585L6.95377 33.5414L6.85292 27.6414L5.85306 27.6585ZM6.05477 39.4585L6.15563 45.3585L7.15548 45.3414L7.05463 39.4414L6.05477 39.4585ZM6.25648 51.2584L6.35734 57.1584L7.35719 57.1413L7.25634 51.2413L6.25648 51.2584ZM6.45819 63.0584L6.55904 68.9584L7.5589 68.9413L7.45804 63.0413L6.45819 63.0584ZM6.6599 74.8584L6.76075 80.7584L7.76061 80.7413L7.65975 74.8413L6.6599 74.8584ZM6.86161 86.6584L6.96246 92.5583L7.96232 92.5412L7.86146 86.6413L6.86161 86.6584ZM7.06332 98.4583L7.16417 104.358L8.16403 104.341L8.06317 98.4412L7.06332 98.4583ZM7.26503 110.258L7.36588 116.158L8.36573 116.141L8.26488 110.241L7.26503 110.258ZM7.46674 122.058L7.51716 125.008L8.51702 124.991L8.46659 122.041L7.46674 122.058ZM7.32217 125.719C7.71931 126.103 8.35239 126.092 8.73618 125.695L14.9904 119.223C15.3742 118.826 15.3634 118.193 14.9663 117.809C14.5691 117.425 13.9361 117.436 13.5523 117.833L7.99292 123.586L2.24021 118.026C1.84306 117.643 1.20999 117.653 0.8262 118.051C0.442407 118.448 0.453229 119.081 0.850371 119.465L7.32217 125.719ZM5.05057 9.96708C5.06001 10.5193 5.51531 10.9593 6.06752 10.9499C6.61972 10.9404 7.05972 10.4851 7.05028 9.9329L5.05057 9.96708ZM7.15114 15.8329C7.1417 15.2807 6.68639 14.8407 6.13419 14.8501C5.58199 14.8596 5.14199 15.3149 5.15143 15.8671L7.15114 15.8329ZM5.25228 21.7671C5.26172 22.3193 5.71702 22.7593 6.26923 22.7498C6.82143 22.7404 7.26143 22.2851 7.25199 21.7329L5.25228 21.7671ZM7.35284 27.6329C7.34341 27.0807 6.8881 26.6407 6.3359 26.6501C5.78369 26.6595 5.3437 27.1148 5.35314 27.667L7.35284 27.6329ZM5.45399 33.567C5.46343 34.1192 5.91873 34.5592 6.47094 34.5498C7.02314 34.5403 7.46314 34.085 7.4537 33.5328L5.45399 33.567ZM7.55455 39.4328C7.54511 38.8806 7.08981 38.4406 6.53761 38.4501C5.9854 38.4595 5.54541 38.9148 5.55485 39.467L7.55455 39.4328ZM5.6557 45.367C5.66514 45.9192 6.12044 46.3592 6.67265 46.3498C7.22485 46.3403 7.66485 45.885 7.65541 45.3328L5.6557 45.367ZM7.75626 51.2328C7.74682 50.6806 7.29152 50.2406 6.73932 50.25C6.18711 50.2595 5.74712 50.7148 5.75655 51.267L7.75626 51.2328ZM5.85741 57.167C5.86685 57.7192 6.32215 58.1592 6.87435 58.1497C7.42656 58.1403 7.86656 57.685 7.85712 57.1328L5.85741 57.167ZM7.95797 63.0328C7.94853 62.4806 7.49323 62.0406 6.94103 62.05C6.38882 62.0595 5.94882 62.5148 5.95826 63.067L7.95797 63.0328ZM6.05912 68.9669C6.06856 69.5192 6.52386 69.9591 7.07606 69.9497C7.62827 69.9403 8.06827 69.485 8.05883 68.9328L6.05912 68.9669ZM8.15968 74.8327C8.15024 74.2805 7.69494 73.8405 7.14273 73.85C6.59053 73.8594 6.15053 74.3147 6.15997 74.8669L8.15968 74.8327ZM6.26083 80.7669C6.27027 81.3191 6.72557 81.7591 7.27777 81.7497C7.82998 81.7402 8.26997 81.2849 8.26053 80.7327L6.26083 80.7669ZM8.36139 86.6327C8.35195 86.0805 7.89665 85.6405 7.34444 85.65C6.79224 85.6594 6.35224 86.1147 6.36168 86.6669L8.36139 86.6327ZM6.46254 92.5669C6.47198 93.1191 6.92728 93.5591 7.47948 93.5496C8.03169 93.5402 8.47168 93.0849 8.46224 92.5327L6.46254 92.5669ZM8.5631 98.4327C8.55366 97.8805 8.09836 97.4405 7.54615 97.4499C6.99395 97.4594 6.55395 97.9147 6.56339 98.4669L8.5631 98.4327ZM6.66424 104.367C6.67368 104.919 7.12899 105.359 7.68119 105.35C8.23339 105.34 8.67339 104.885 8.66395 104.333L6.66424 104.367ZM8.76481 110.233C8.75537 109.68 8.30007 109.24 7.74786 109.25C7.19566 109.259 6.75566 109.715 6.7651 110.267L8.76481 110.233ZM6.86595 116.167C6.87539 116.719 7.33069 117.159 7.8829 117.15C8.4351 117.14 8.8751 116.685 8.86566 116.133L6.86595 116.167ZM8.96652 122.033C8.95708 121.48 8.50177 121.04 7.94957 121.05C7.39737 121.059 6.95737 121.515 6.96681 122.067L8.96652 122.033ZM5.00015 7.01709L5.05057 9.96708L7.05028 9.9329L6.99985 6.98291L5.00015 7.01709ZM5.15143 15.8671L5.25228 21.7671L7.25199 21.7329L7.15114 15.8329L5.15143 15.8671ZM5.35314 27.667L5.45399 33.567L7.4537 33.5328L7.35284 27.6329L5.35314 27.667ZM5.55485 39.467L5.6557 45.367L7.65541 45.3328L7.55455 39.4328L5.55485 39.467ZM5.75655 51.267L5.85741 57.167L7.85712 57.1328L7.75626 51.2328L5.75655 51.267ZM5.95826 63.067L6.05912 68.9669L8.05883 68.9328L7.95797 63.0328L5.95826 63.067ZM6.15997 74.8669L6.26083 80.7669L8.26053 80.7327L8.15968 74.8327L6.15997 74.8669ZM6.36168 86.6669L6.46254 92.5669L8.46224 92.5327L8.36139 86.6327L6.36168 86.6669ZM6.56339 98.4669L6.66424 104.367L8.66395 104.333L8.5631 98.4327L6.56339 98.4669ZM6.7651 110.267L6.86595 116.167L8.86566 116.133L8.76481 110.233L6.7651 110.267ZM6.96681 122.067L7.01724 125.017L9.01694 124.983L8.96652 122.033L6.96681 122.067Z" fill="#FD9EB1"/>
</g>
<g clip-path="url(#clip1_106_6)">
<path d="M6 12C9.31371 12 12 9.31371 12 6C12 2.68629 9.31371 0 6 0C2.68629 0 0 2.68629 0 6C0 9.31371 2.68629 12 6 12Z" fill="#FF8DA4"/>
</g>
<defs>
<clipPath id="clip0_106_6">
<rect width="16" height="120" fill="white" transform="translate(0 6)"/>
</clipPath>
<clipPath id="clip1_106_6">
<rect width="12" height="12" fill="white"/>
</clipPath>
</defs>
</svg>
